<svg width="73" height="30" viewBox="0 0 73 30" fill="none" xmlns="http://www.w3.org/2000/svg">
    <path d="M12 16.7812C12.3624 16.7812 12.6562 16.4874 12.6562 16.125C12.6562 15.7626 12.3624 15.4688 12 15.4688C11.6376 15.4688 11.3438 15.7626 11.3438 16.125C11.3438 16.4874 11.6376 16.7812 12 16.7812Z" fill="white"/>
    <path d="M13.8517 5.5065L14.4784 4.00238C14.52 3.90267 14.5364 3.79421 14.526 3.68666C14.5156 3.5791 14.4788 3.47578 14.4189 3.38586C14.359 3.29595 14.2778 3.22224 14.1825 3.17128C14.0872 3.12031 13.9808 3.09368 13.8727 3.09375H10.1227C10.0147 3.09368 9.9083 3.12031 9.81301 3.17128C9.71773 3.22224 9.63652 3.29595 9.57659 3.38586C9.51666 3.47578 9.47987 3.5791 9.4695 3.68666C9.45912 3.79421 9.47548 3.90267 9.51713 4.00238L10.1437 5.5065C8.12156 5.85976 6.24228 6.78307 4.72688 8.16784C3.21148 9.55261 2.12297 11.3413 1.58934 13.3235C1.05572 15.3058 1.09916 17.3992 1.71457 19.3576C2.32998 21.3159 3.49176 23.0579 5.06331 24.3786C6.63486 25.6993 8.55083 26.5439 10.5859 26.8129C12.621 27.082 14.6907 26.7644 16.5514 25.8975C18.4122 25.0305 19.9868 23.6503 21.09 21.9192C22.1932 20.188 22.7792 18.1778 22.779 16.125C22.7919 13.5839 21.9012 11.1209 20.2659 9.17586C18.6307 7.2308 16.3573 5.93027 13.8517 5.5065ZM21.4665 16.125C21.4666 17.1477 21.3002 18.1637 20.9738 19.1329L15.2179 16.7486C15.2994 16.3369 15.2994 15.9131 15.2179 15.5014L20.9835 13.1134C21.3045 14.085 21.4676 15.1018 21.4665 16.125ZM20.4855 11.8988L14.7157 14.2875C14.4807 13.9409 14.1819 13.642 13.8353 13.407L16.2244 7.63912C18.0742 8.55218 19.5718 10.0492 20.4855 11.8988ZM11.9977 18.0938C11.6084 18.0938 11.2277 17.9783 10.904 17.762C10.5802 17.5456 10.3279 17.2381 10.1789 16.8784C10.0299 16.5187 9.99086 16.1228 10.0668 15.7409C10.1428 15.359 10.3303 15.0082 10.6056 14.7329C10.881 14.4575 11.2318 14.27 11.6137 14.1941C11.9956 14.1181 12.3914 14.1571 12.7512 14.3061C13.1109 14.4551 13.4184 14.7075 13.6347 15.0312C13.851 15.355 13.9665 15.7356 13.9665 16.125C13.9659 16.647 13.7583 17.1474 13.3892 17.5165C13.0201 17.8855 12.5197 18.0932 11.9977 18.0938ZM12.8884 4.40625L11.9977 6.54375L11.1071 4.40625H12.8884ZM11.3921 8.50238C11.4419 8.62202 11.5259 8.72426 11.6337 8.79618C11.7415 8.86809 11.8682 8.90648 11.9977 8.90648C12.1273 8.90648 12.254 8.86809 12.3618 8.79618C12.4696 8.72426 12.5536 8.62202 12.6034 8.50238L13.3328 6.75187C13.9018 6.83152 14.4625 6.96205 15.0082 7.14188L12.621 12.9049C12.2095 12.8234 11.786 12.8234 11.3745 12.9049L8.98725 7.14188C9.53297 6.96205 10.0937 6.83152 10.6628 6.75187L11.3921 8.50238ZM7.77225 7.63987L10.1602 13.407C9.8136 13.642 9.5148 13.9409 9.27975 14.2875L3.51 11.8988C4.424 10.049 5.92197 8.55198 7.77225 7.63912V7.63987ZM2.529 16.125C2.52794 15.1018 2.69101 14.085 3.012 13.1134L8.77763 15.5014C8.69613 15.9131 8.69613 16.3369 8.77763 16.7486L3.02175 19.1329C2.69528 18.1637 2.52885 17.1477 2.529 16.125ZM3.525 20.3449L9.27975 17.9625C9.5148 18.3091 9.8136 18.608 10.1602 18.843L7.7775 24.5978C5.93814 23.6763 4.44633 22.1843 3.525 20.3449ZM8.99025 25.1014L11.3745 19.3451C11.786 19.4266 12.2095 19.4266 12.621 19.3451L15.0052 25.1014C13.054 25.7579 10.9415 25.7579 8.99025 25.1014ZM16.218 24.5978L13.8353 18.843C14.1819 18.608 14.4807 18.3091 14.7157 17.9625L20.4705 20.3464C19.5489 22.1853 18.0571 23.6766 16.218 24.5978Z" fill="white"/>
    <path d="M40.102 22.216C39.25 22.216 38.47 22.06 37.762 21.748C37.054 21.424 36.454 20.986 35.962 20.434C35.47 19.882 35.116 19.264 34.9 18.58L36.43 17.95C36.754 18.814 37.234 19.48 37.87 19.948C38.518 20.404 39.274 20.632 40.138 20.632C40.666 20.632 41.128 20.548 41.524 20.38C41.92 20.212 42.226 19.978 42.442 19.678C42.67 19.366 42.784 19.006 42.784 18.598C42.784 18.034 42.622 17.59 42.298 17.266C41.986 16.93 41.524 16.678 40.912 16.51L38.446 15.754C37.474 15.454 36.73 14.98 36.214 14.332C35.698 13.684 35.44 12.94 35.44 12.1C35.44 11.368 35.614 10.726 35.962 10.174C36.322 9.61 36.814 9.172 37.438 8.86C38.074 8.536 38.794 8.374 39.598 8.374C40.402 8.374 41.128 8.518 41.776 8.806C42.436 9.094 42.994 9.484 43.45 9.976C43.906 10.456 44.242 11.008 44.458 11.632L42.946 12.262C42.658 11.506 42.226 10.936 41.65 10.552C41.074 10.156 40.396 9.958 39.616 9.958C39.136 9.958 38.71 10.042 38.338 10.21C37.978 10.366 37.696 10.6 37.492 10.912C37.3 11.212 37.204 11.572 37.204 11.992C37.204 12.484 37.36 12.922 37.672 13.306C37.984 13.69 38.458 13.984 39.094 14.188L41.344 14.854C42.4 15.178 43.198 15.64 43.738 16.24C44.278 16.84 44.548 17.584 44.548 18.472C44.548 19.204 44.356 19.852 43.972 20.416C43.6 20.98 43.078 21.424 42.406 21.748C41.746 22.06 40.978 22.216 40.102 22.216ZM46.9327 25.6V12.298H48.5707V14.386L48.3547 13.972C48.7147 13.396 49.2067 12.94 49.8307 12.604C50.4547 12.256 51.1687 12.082 51.9727 12.082C52.8847 12.082 53.7007 12.304 54.4207 12.748C55.1527 13.192 55.7287 13.798 56.1487 14.566C56.5687 15.322 56.7787 16.186 56.7787 17.158C56.7787 18.106 56.5687 18.964 56.1487 19.732C55.7287 20.5 55.1527 21.106 54.4207 21.55C53.7007 21.994 52.8787 22.216 51.9547 22.216C51.1747 22.216 50.4607 22.042 49.8127 21.694C49.1767 21.346 48.6847 20.854 48.3367 20.218L48.6067 19.93V25.6H46.9327ZM51.8287 20.596C52.4407 20.596 52.9867 20.446 53.4667 20.146C53.9467 19.846 54.3187 19.438 54.5827 18.922C54.8587 18.394 54.9967 17.806 54.9967 17.158C54.9967 16.486 54.8587 15.898 54.5827 15.394C54.3187 14.878 53.9467 14.47 53.4667 14.17C52.9867 13.858 52.4407 13.702 51.8287 13.702C51.2167 13.702 50.6647 13.852 50.1727 14.152C49.6927 14.452 49.3087 14.866 49.0207 15.394C48.7447 15.91 48.6067 16.498 48.6067 17.158C48.6067 17.806 48.7447 18.394 49.0207 18.922C49.3087 19.438 49.6927 19.846 50.1727 20.146C50.6647 20.446 51.2167 20.596 51.8287 20.596ZM58.9737 22V12.298H60.6477V22H58.9737ZM58.9737 10.75V8.59H60.6477V10.75H58.9737ZM63.2452 22V12.298H64.8832V14.188L64.6132 14.026C64.8532 13.414 65.2372 12.94 65.7652 12.604C66.3052 12.256 66.9352 12.082 67.6552 12.082C68.3512 12.082 68.9692 12.238 69.5092 12.55C70.0612 12.862 70.4932 13.294 70.8052 13.846C71.1292 14.398 71.2912 15.022 71.2912 15.718V22H69.5992V16.258C69.5992 15.718 69.5032 15.262 69.3112 14.89C69.1192 14.518 68.8432 14.23 68.4832 14.026C68.1352 13.81 67.7332 13.702 67.2772 13.702C66.8212 13.702 66.4132 13.81 66.0532 14.026C65.7052 14.23 65.4292 14.524 65.2252 14.908C65.0212 15.28 64.9192 15.73 64.9192 16.258V22H63.2452Z" fill="white"/>
</svg>
