<svg width="106" height="30" viewBox="0 0 106 30" fill="none" xmlns="http://www.w3.org/2000/svg">
    <path d="M14.3478 5H9.64781C8.60781 5 7.75781 5.84 7.75781 6.88V7.82C7.75781 8.86 8.59781 9.7 9.63781 9.7H14.3478C15.3878 9.7 16.2278 8.86 16.2278 7.82V6.88C16.2378 5.84 15.3878 5 14.3478 5Z" fill="#60E5AE"/>
    <path d="M17.2391 7.81998C17.2391 9.40998 15.9391 10.71 14.3491 10.71H9.64906C8.05906 10.71 6.75906 9.40998 6.75906 7.81998C6.75906 7.25998 6.15906 6.90998 5.65906 7.16998C4.24906 7.91998 3.28906 9.40998 3.28906 11.12V20.53C3.28906 22.99 5.29906 25 7.75906 25H16.2391C18.6991 25 20.7091 22.99 20.7091 20.53V11.12C20.7091 9.40998 19.7491 7.91998 18.3391 7.16998C17.8391 6.90998 17.2391 7.25998 17.2391 7.81998ZM12.3791 19.95H7.99906C7.58906 19.95 7.24906 19.61 7.24906 19.2C7.24906 18.79 7.58906 18.45 7.99906 18.45H12.3791C12.7891 18.45 13.1291 18.79 13.1291 19.2C13.1291 19.61 12.7891 19.95 12.3791 19.95ZM14.9991 15.95H7.99906C7.58906 15.95 7.24906 15.61 7.24906 15.2C7.24906 14.79 7.58906 14.45 7.99906 14.45H14.9991C15.4091 14.45 15.7491 14.79 15.7491 15.2C15.7491 15.61 15.4091 15.95 14.9991 15.95Z" fill="#60E5AE"/>
    <path d="M37.834 22V10.21H34.198V8.59H43.198V10.21H39.616V22H37.834ZM46.472 22.216C45.836 22.216 45.272 22.102 44.78 21.874C44.3 21.634 43.922 21.31 43.646 20.902C43.37 20.482 43.232 20.002 43.232 19.462C43.232 18.946 43.34 18.484 43.556 18.076C43.784 17.656 44.132 17.302 44.6 17.014C45.08 16.726 45.68 16.522 46.4 16.402L50 15.808V17.212L46.778 17.752C46.154 17.86 45.698 18.058 45.41 18.346C45.134 18.634 44.996 18.988 44.996 19.408C44.996 19.804 45.152 20.134 45.464 20.398C45.788 20.662 46.19 20.794 46.67 20.794C47.282 20.794 47.81 20.668 48.254 20.416C48.71 20.152 49.064 19.798 49.316 19.354C49.58 18.91 49.712 18.418 49.712 17.878V15.412C49.712 14.884 49.514 14.458 49.118 14.134C48.734 13.798 48.224 13.63 47.588 13.63C47.036 13.63 46.544 13.774 46.112 14.062C45.692 14.338 45.38 14.71 45.176 15.178L43.718 14.422C43.898 13.978 44.186 13.582 44.582 13.234C44.978 12.874 45.44 12.592 45.968 12.388C46.496 12.184 47.048 12.082 47.624 12.082C48.368 12.082 49.022 12.226 49.586 12.514C50.15 12.79 50.588 13.18 50.9 13.684C51.224 14.176 51.386 14.752 51.386 15.412V22H49.748V20.164L50.054 20.272C49.85 20.656 49.574 20.992 49.226 21.28C48.878 21.568 48.47 21.796 48.002 21.964C47.534 22.132 47.024 22.216 46.472 22.216ZM57.4555 22.216C56.4835 22.216 55.6375 21.976 54.9175 21.496C54.1975 21.016 53.6875 20.368 53.3875 19.552L54.7195 18.904C54.9955 19.48 55.3735 19.936 55.8535 20.272C56.3335 20.608 56.8675 20.776 57.4555 20.776C57.9835 20.776 58.4215 20.65 58.7695 20.398C59.1175 20.146 59.2915 19.816 59.2915 19.408C59.2915 19.12 59.2075 18.892 59.0395 18.724C58.8835 18.544 58.6915 18.406 58.4635 18.31C58.2355 18.202 58.0255 18.124 57.8335 18.076L56.3755 17.662C55.4995 17.41 54.8575 17.05 54.4495 16.582C54.0535 16.114 53.8555 15.568 53.8555 14.944C53.8555 14.368 53.9995 13.87 54.2875 13.45C54.5875 13.018 54.9895 12.682 55.4935 12.442C56.0095 12.202 56.5855 12.082 57.2215 12.082C58.0735 12.082 58.8355 12.298 59.5075 12.73C60.1915 13.162 60.6775 13.768 60.9655 14.548L59.5975 15.178C59.3815 14.674 59.0575 14.278 58.6255 13.99C58.1935 13.69 57.7075 13.54 57.1675 13.54C56.6755 13.54 56.2855 13.666 55.9975 13.918C55.7095 14.158 55.5655 14.464 55.5655 14.836C55.5655 15.112 55.6375 15.34 55.7815 15.52C55.9255 15.688 56.0995 15.82 56.3035 15.916C56.5075 16 56.7055 16.072 56.8975 16.132L58.4815 16.6C59.2735 16.828 59.8855 17.182 60.3175 17.662C60.7615 18.142 60.9835 18.718 60.9835 19.39C60.9835 19.93 60.8335 20.416 60.5335 20.848C60.2335 21.28 59.8195 21.616 59.2915 21.856C58.7635 22.096 58.1515 22.216 57.4555 22.216ZM63.1749 22V8.374H64.8489V17.716L64.1649 17.554L69.3129 12.298H71.4549L67.7289 16.204L71.7069 22H69.7269L66.0909 16.744L67.1349 16.69L64.3089 19.642L64.8489 18.418V22H63.1749ZM76.5213 22V8.59H78.2853V20.38H84.1713V22H76.5213ZM85.9562 22V12.298H87.6302V22H85.9562ZM85.9562 10.75V8.59H87.6302V10.75H85.9562ZM93.7016 22.216C92.7296 22.216 91.8836 21.976 91.1636 21.496C90.4436 21.016 89.9336 20.368 89.6336 19.552L90.9656 18.904C91.2416 19.48 91.6196 19.936 92.0996 20.272C92.5796 20.608 93.1136 20.776 93.7016 20.776C94.2296 20.776 94.6676 20.65 95.0156 20.398C95.3636 20.146 95.5376 19.816 95.5376 19.408C95.5376 19.12 95.4536 18.892 95.2856 18.724C95.1296 18.544 94.9376 18.406 94.7096 18.31C94.4816 18.202 94.2716 18.124 94.0796 18.076L92.6216 17.662C91.7456 17.41 91.1036 17.05 90.6956 16.582C90.2996 16.114 90.1016 15.568 90.1016 14.944C90.1016 14.368 90.2456 13.87 90.5336 13.45C90.8336 13.018 91.2356 12.682 91.7396 12.442C92.2556 12.202 92.8316 12.082 93.4676 12.082C94.3196 12.082 95.0816 12.298 95.7536 12.73C96.4376 13.162 96.9236 13.768 97.2116 14.548L95.8436 15.178C95.6276 14.674 95.3036 14.278 94.8716 13.99C94.4396 13.69 93.9536 13.54 93.4136 13.54C92.9216 13.54 92.5316 13.666 92.2436 13.918C91.9556 14.158 91.8116 14.464 91.8116 14.836C91.8116 15.112 91.8836 15.34 92.0276 15.52C92.1716 15.688 92.3456 15.82 92.5496 15.916C92.7536 16 92.9516 16.072 93.1436 16.132L94.7276 16.6C95.5196 16.828 96.1316 17.182 96.5636 17.662C97.0076 18.142 97.2296 18.718 97.2296 19.39C97.2296 19.93 97.0796 20.416 96.7796 20.848C96.4796 21.28 96.0656 21.616 95.5376 21.856C95.0096 22.096 94.3976 22.216 93.7016 22.216ZM103.363 22.108C102.415 22.108 101.683 21.838 101.167 21.298C100.663 20.758 100.411 19.996 100.411 19.012V13.9H98.647V12.298H99.007C99.439 12.298 99.781 12.166 100.033 11.902C100.285 11.638 100.411 11.29 100.411 10.858V10.066H102.085V12.298H104.263V13.9H102.085V18.958C102.085 19.282 102.133 19.564 102.229 19.804C102.337 20.044 102.511 20.236 102.751 20.38C102.991 20.512 103.309 20.578 103.705 20.578C103.789 20.578 103.891 20.572 104.011 20.56C104.143 20.548 104.263 20.536 104.371 20.524V22C104.215 22.036 104.041 22.06 103.849 22.072C103.657 22.096 103.495 22.108 103.363 22.108Z" fill="#60E5AE"/>
</svg>
